<svg xmlns="http://www.w3.org/2000/svg" viewBox="0 0 288 288">
  <g fill="#EE7624">
    <path d="M101.945 173.645c-19.74 0-38.3-8.32-52.264-23.437-13.83-14.992-21.42-34.882-21.42-56.04 0-21.156 7.6-41.046 21.43-56.038 2.07-2.238 5.53-2.365 7.77-.296 2.24 2.07 2.36 5.533.3 7.77C45.8 58.57 39.22 75.8 39.22 94.17s6.58 35.64 18.518 48.563c11.81 12.838 27.545 19.89 44.207 19.89s32.353-7.01 44.164-19.848c11.93-12.965 18.51-30.195 18.51-48.565s-6.58-35.64-18.52-48.56c-2.07-2.24-1.9-5.7.29-7.77 2.23-2.07 5.69-1.94 7.76.297 13.83 14.992 21.47 34.882 21.47 55.997 0 21.115-7.64 41.047-21.43 56.04-13.97 15.117-32.53 23.436-52.27 23.436z"/>
    <path d="M163.024 268.79c-36.53 0-67.364-29.097-67.364-63.515V168.24c0-3.04 2.446-5.49 5.483-5.49 3.037 0 5.484 2.45 5.484 5.49v37.035c0 28.463 25.815 52.534 56.397 52.534 30.96 0 56.144-23.06 56.144-51.4 0-3.04 2.447-5.49 5.484-5.49s5.483 2.45 5.483 5.49c-.042 34.41-30.118 62.37-67.11 62.37z"/>
    <path d="M225.2 206.796c-19.15 0-34.758-15.583-34.758-34.798 0-19.214 15.607-34.797 34.758-34.797 19.15 0 34.758 15.59 34.758 34.8 0 19.22-15.607 34.8-34.758 34.8zm0-58.615c-13.12 0-23.79 10.69-23.79 23.82 0 13.14 10.67 23.82 23.79 23.82s23.79-10.68 23.79-23.82c0-13.13-10.714-23.81-23.79-23.81zM60.016 24.75c4.218 0 7.593 3.42 7.593 7.602 0 4.18-3.42 7.6-7.6 7.6s-7.6-3.42-7.6-7.6S55.82 24.75 60 24.75z"/>
    <path d="M60.016 45.478c-7.213 0-13.076-5.87-13.076-13.09 0-7.222 5.863-13.092 13.076-13.092s13.076 5.87 13.076 13.09c0 7.222-5.863 13.092-13.076 13.092zm0-15.245c-1.18 0-2.11.97-2.11 2.112 0 1.182.93 2.11 2.11 2.11 1.18 0 2.11-.97 2.11-2.11s-.93-2.112-2.11-2.112zm83.814-5.49c4.177 0 7.594 3.42 7.594 7.602 0 4.18-3.417 7.6-7.593 7.6-4.21 0-7.59-3.42-7.59-7.6s3.42-7.602 7.59-7.602z"/>
    <path d="M143.83 45.478c-7.212 0-13.075-5.87-13.075-13.09 0-7.222 5.863-13.092 13.076-13.092 7.22 0 13.08 5.87 13.08 13.09 0 7.222-5.86 13.092-13.07 13.092zm0-15.245c-1.18 0-2.108.97-2.108 2.112 0 1.182.928 2.11 2.11 2.11 1.18 0 2.108-.97 2.108-2.11s-.928-2.112-2.11-2.112zm81.243 135.684c2.784 0 5.062 2.28 5.062 5.068 0 2.787-2.278 5.067-5.062 5.067-2.784 0-5.06-2.28-5.06-5.067 0-2.787 2.276-5.068 5.06-5.068z"/>
    <path d="M225.073 181.542c-5.82 0-10.545-4.73-10.545-10.557 0-5.828 4.724-10.558 10.545-10.558 5.822 0 10.546 4.73 10.546 10.558 0 5.827-4.77 10.557-10.55 10.557z"/>
  </g>
</svg>