<svg xmlns="http://www.w3.org/2000/svg" viewBox="0 0 288 288">
  <path fill="#6DCB99" d="M64.6592704,24.6785509 L105.818729,24.6785509 L105.818729,21.5876941 C105.818729,20.1500863 106.968033,19 108.404663,19 L180.595337,19 C182.031967,19 183.181271,20.1500863 183.181271,21.5876941 L183.181271,24.6785509 L224.34073,24.6785509 C228.650621,24.6785509 232.529522,26.4755607 235.402783,29.2788959 C238.204212,32.0822312 240,36.0356527 240,40.3484761 L240,253.330075 C240,257.642898 238.204212,261.59632 235.402783,264.399655 C232.601354,267.20299 228.650621,269 224.34073,269 L64.6592704,269 C60.3493795,269 56.3986461,267.274871 53.597217,264.399655 C50.7957879,261.59632 49,257.642898 49,253.330075 L49,40.3484761 C49,36.0356527 50.7239564,32.0822312 53.597217,29.2788959 C56.3986461,26.4036803 60.3493795,24.6785509 64.6592704,24.6785509 L64.6592704,24.6785509 Z M97.7735991,178.143186 L89.5848063,178.143186 C88.148176,178.143186 86.9988718,179.293272 86.9988718,180.73088 C86.9988718,182.168488 88.148176,183.318574 89.5848063,183.318574 L97.7735991,183.318574 C99.2102294,183.318574 100.359534,182.168488 100.359534,180.73088 C100.359534,179.293272 99.2102294,178.143186 97.7735991,178.143186 L97.7735991,178.143186 Z M97.7735991,148.240943 L89.5848063,148.240943 C88.148176,148.240943 86.9988718,149.391029 86.9988718,150.828637 C86.9988718,152.266245 88.148176,153.416331 89.5848063,153.416331 L97.7735991,153.416331 C99.2102294,153.416331 100.359534,152.266245 100.359534,150.828637 C100.359534,149.391029 99.2102294,148.240943 97.7735991,148.240943 L97.7735991,148.240943 Z M97.7735991,119.991949 L89.5848063,119.991949 C88.148176,119.991949 86.9988718,121.142036 86.9988718,122.579643 C86.9988718,124.017251 88.148176,125.167338 89.5848063,125.167338 L97.7735991,125.167338 C99.2102294,125.167338 100.359534,124.017251 100.359534,122.579643 C100.359534,121.213916 99.2102294,119.991949 97.7735991,119.991949 L97.7735991,119.991949 Z M97.7735991,91.8148361 L89.5848063,91.8148361 C88.148176,91.8148361 86.9988718,92.9649224 86.9988718,94.4025302 C86.9988718,95.840138 88.148176,96.9902243 89.5848063,96.9902243 L97.7735991,96.9902243 C99.2102294,96.9902243 100.359534,95.840138 100.359534,94.4025302 C100.359534,92.9649224 99.2102294,91.8148361 97.7735991,91.8148361 L97.7735991,91.8148361 Z M197.475743,91.8148361 L115.80331,91.8148361 C114.366679,91.8148361 113.217375,92.9649224 113.217375,94.4025302 C113.217375,95.840138 114.366679,96.9902243 115.80331,96.9902243 L197.475743,96.9902243 C198.912373,96.9902243 200.061677,95.840138 200.061677,94.4025302 C200.133509,93.0368028 198.912373,91.8148361 197.475743,91.8148361 L197.475743,91.8148361 Z M197.475743,120.06383 L115.80331,120.06383 C114.366679,120.06383 113.217375,121.213916 113.217375,122.651524 C113.217375,124.089132 114.366679,125.239218 115.80331,125.239218 L197.475743,125.239218 C198.912373,125.239218 200.061677,124.089132 200.061677,122.651524 C200.133509,121.213916 198.912373,120.06383 197.475743,120.06383 L197.475743,120.06383 Z M178.799549,178.143186 L115.80331,178.143186 C114.366679,178.143186 113.217375,179.293272 113.217375,180.73088 C113.217375,182.168488 114.366679,183.318574 115.80331,183.318574 L178.799549,183.318574 C180.236179,183.318574 181.385483,182.168488 181.385483,180.73088 C181.457315,179.293272 180.236179,178.143186 178.799549,178.143186 L178.799549,178.143186 Z M197.475743,148.240943 L115.80331,148.240943 C114.366679,148.240943 113.217375,149.391029 113.217375,150.828637 C113.217375,152.266245 114.366679,153.416331 115.80331,153.416331 L197.475743,153.416331 C198.912373,153.416331 200.061677,152.266245 200.061677,150.828637 C200.133509,149.391029 198.912373,148.240943 197.475743,148.240943 L197.475743,148.240943 Z M111.062429,27.266245 L111.062429,53.5744681 L178.009402,53.5744681 L178.009402,24.1753882 L111.062429,24.1753882 L111.062429,27.266245 L111.062429,27.266245 Z M71.0522753,42.0017251 L105.818729,42.0017251 L105.818729,29.9258194 L64.6592704,29.9258194 C61.7860098,29.9258194 59.1282437,31.0759057 57.2606243,33.0166763 C55.3930049,34.8855664 54.1718691,37.5451409 54.1718691,40.4203565 L54.1718691,253.401955 C54.1718691,256.277171 55.3211734,258.936745 57.2606243,260.805635 C59.1282437,262.674526 61.7860098,263.896492 64.6592704,263.896492 L224.412561,263.896492 C227.285822,263.896492 229.871756,262.746406 231.811207,260.805635 C233.678827,258.936745 234.899962,256.277171 234.899962,253.401955 L234.899962,40.3484761 C234.899962,37.4732605 233.750658,34.8855664 231.811207,32.9447959 C229.943588,31.0759057 227.285822,29.9258194 224.412561,29.9258194 L183.253103,29.9258194 L183.253103,42.0736055 L218.019556,42.0736055 C219.456187,42.0736055 220.605491,43.2236918 220.605491,44.6612996 L220.605491,249.089132 C220.605491,250.52674 219.456187,251.676826 218.019556,251.676826 L71.0522753,251.676826 C69.615645,251.676826 68.4663407,250.52674 68.4663407,249.089132 L68.4663407,44.6612996 C68.4663407,43.2236918 69.615645,42.0017251 71.0522753,42.0017251 L71.0522753,42.0017251 Z M105.818729,47.2489937 L73.6382099,47.2489937 L73.6382099,246.429557 L215.36179,246.429557 L215.36179,47.2489937 L183.181271,47.2489937 L183.181271,56.1621622 C183.181271,57.59977 182.031967,58.7498562 180.595337,58.7498562 L108.476495,58.7498562 C107.039865,58.7498562 105.89056,57.59977 105.89056,56.1621622 L105.89056,47.2489937 L105.818729,47.2489937 Z"/>
</svg>