<svg xmlns="http://www.w3.org/2000/svg" viewBox="0 0 288 288">
  <g fill="#D02C30">
    <path d="M224.7 178.1c-1.2 0-2.3-.4-3.2-1.3-1.8-1.8-1.8-4.7 0-6.4l14-14c22.6-22.5 10.1-52.5-7.4-71.3-6.3-6.7-13.3-12.4-20.2-16.3-6.3-3.6-36.1-13.7-55.8 5.4l-42 41.8c-1.9 1.9-1.3 2.6-.5 3.4 4 4.1 17.8 6.1 25.9-1.9l10.6-10.4c9.2-8.4 19.5-5.2 28.6-2.5 10.4 3.1 20.2 6.1 31.7-2.9 2-1.6 4.8-1.2 6.4.8 1.6 2 1.2 4.8-.8 6.4-15.2 12-28.9 7.8-39.9 4.5-9.2-2.8-14.7-4.1-19.7.4l-10.5 10.3c-11.9 11.7-31.4 9.2-38.7 1.8-4.8-4.8-4.6-11.2.5-16.2l42.1-41.9c21.8-21.2 54.3-13.7 66.6-6.8 7.8 4.4 15.5 10.6 22.4 18 21.9 23.5 32.6 58.6 7.1 84l-14 14c-.9.7-2.1 1.1-3.2 1.1z"/>
    <path d="M60.9 171.5c-1.2 0-2.3-.4-3.2-1.3l-14-14c-25.9-25.9-15.7-60 4.8-80.7 21.8-22.1 57.3-31.3 83.1-6.2l9.5 9.4c1.8 1.8 1.8 4.7 0 6.4-1.8 1.8-4.7 1.8-6.4 0l-9.4-9.4C102.7 53.8 73 63.5 54.9 81.8c-17.4 17.7-26.3 46.4-4.9 67.9l14 14c1.8 1.8 1.8 4.7 0 6.4-.8.9-2 1.4-3.1 1.4zm155.3 34.1c-4.3 0-8.9-1.8-13.2-6.2l-25.4-26.2c-1.8-1.8-1.7-4.7.1-6.4 1.8-1.8 4.7-1.7 6.4.1l25.4 26.2c5.5 5.7 9.8 3.2 11.9 1.1 3.6-3.4 5-9.7 1.1-13.9l-54.2-56.8c-1.7-1.8-1.7-4.7.2-6.4 1.8-1.7 4.7-1.7 6.4.2l54.2 56.8c7.8 8.2 5.4 20.2-1.3 26.7-3.1 2.9-7.2 4.8-11.6 4.8z"/>
    <path d="M195.6 224.7c-4.3 0-8.7-1.6-12.2-5.2l-27.9-28.7c-1.8-1.8-1.7-4.7.1-6.4 1.8-1.8 4.7-1.7 6.4.1l27.9 28.7c4.2 4.3 10.4 2.1 13.5-.9 1.9-1.8 5.6-6.7-.4-12.9l-27.3-28.2c-1.8-1.8-1.7-4.7.1-6.4 1.8-1.7 4.7-1.7 6.4.1l27.3 28.2c8.9 9.2 6.3 19.8.2 25.8-3.7 3.5-8.9 5.8-14.1 5.8z"/>
    <path d="M173.3 241.8c-4.3 0-8.7-1.6-12.3-5.2l-14-14.1c-1.8-1.8-1.8-4.7 0-6.4 1.8-1.8 4.7-1.8 6.4 0l13.9 14.1c4.3 4.3 10.3 2.2 13.3-.6 1.8-1.7 5.3-6.4-.7-12.7-1.7-1.8-1.7-4.7.2-6.4 1.8-1.7 4.7-1.7 6.4.2 8.8 9.3 6.6 19.5.4 25.5-3.5 3.4-8.5 5.6-13.6 5.6zm-106.2-39c-4.7 0-9.1-1.8-12.4-5.1l-1.5-1.5c-6.8-6.8-6.8-17.9 0-24.8l19.3-19.3c3.3-3.3 7.7-5.1 12.4-5.1s9.1 1.8 12.4 5.1l1.5 1.5c3.3 3.3 5.1 7.7 5.1 12.4s-1.8 9.1-5.1 12.4l-19.3 19.3c-3.3 3.3-7.7 5.1-12.4 5.1zm17.8-46.6c-2.3 0-4.4.9-5.9 2.4l-19.3 19.3c-3.3 3.3-3.3 8.6 0 11.9l1.5 1.5c1.6 1.6 3.7 2.4 5.9 2.4 2.3 0 4.4-.9 5.9-2.4L92.4 172c1.6-1.6 2.4-3.7 2.4-5.9 0-2.3-.9-4.4-2.4-6l-1.5-1.5c-1.6-1.6-3.7-2.4-6-2.4z"/>
    <path d="M88.2 223.1c-4.5 0-9-1.7-12.4-5.1l-1.5-1.5c-6.8-6.8-6.8-17.9 0-24.8L105 161c6.8-6.8 17.9-6.8 24.8 0l1.5 1.5c6.8 6.8 6.8 17.9 0 24.8L100.5 218c-3.4 3.4-7.9 5.1-12.3 5.1zm29.2-58.1c-2.2 0-4.3.8-5.9 2.5l-30.7 30.7c-3.3 3.3-3.3 8.6 0 11.9l1.5 1.5c3.2 3.2 8.7 3.2 11.9 0l30.7-30.7c1.6-1.6 2.4-3.7 2.4-5.9 0-2.3-.9-4.4-2.4-5.9l-1.5-1.5c-1.7-1.8-3.8-2.6-6-2.6z"/>
    <path d="M110.4 242.2c-4.7 0-9.1-1.8-12.4-5.1l-1.5-1.5c-6.8-6.8-6.8-17.9 0-24.8l21.1-21.1c6.8-6.8 17.9-6.8 24.8 0l1.5 1.5c6.8 6.8 6.8 17.9 0 24.8l-21.1 21.1c-3.3 3.3-7.7 5.1-12.4 5.1zm19.6-48.5c-2.2 0-4.3.8-5.9 2.5L103 217.3c-3.3 3.3-3.3 8.6 0 11.9l1.5 1.5c3.2 3.2 8.7 3.2 11.9 0l21.1-21.1c3.3-3.3 3.3-8.6 0-11.9l-1.5-1.5c-1.7-1.7-3.9-2.5-6-2.5z"/>
    <path d="M132.1 261.5c-4.5 0-9-1.7-12.4-5.1l-1.5-1.5c-3.3-3.3-5.1-7.7-5.1-12.4s1.8-9.1 5.1-12.4l12.9-12.9c6.8-6.8 17.9-6.8 24.8 0l1.5 1.5c6.8 6.8 6.8 17.9 0 24.8l-12.9 12.9c-3.5 3.3-8 5.1-12.4 5.1zm11.4-40.4c-2.2 0-4.3.8-5.9 2.5l-12.9 12.9c-1.6 1.6-2.4 3.7-2.4 5.9 0 2.3.9 4.4 2.4 5.9l1.5 1.5c3.2 3.2 8.7 3.2 11.9 0l12.9-12.9c3.3-3.3 3.3-8.6 0-11.9l-1.5-1.5c-1.7-1.6-3.8-2.4-6-2.4z"/>
  </g>
</svg>